<?xml version="1.0" encoding="UTF-8"?>
<svg version="1.1" xmlns="http://www.w3.org/2000/svg" width="300" height="250" viewBox="60 420 300 250">
  <path d="M0 0 C2.19 1.59 2.19 1.59 4.1 3.85 C6.1 5.93 6.1 5.93 9.01 5.36 C10.06 5.11 11.11 4.85 12.19 4.59 C27.78 3.49 27.78 3.49 34.19 8.59 C38.42 12.39 41.18 15.78 42.56 21.34 C43.34 24.18 43.65 25.26 46.19 26.84 C47.77 27.47 49.36 28.06 50.96 28.64 C54.57 30.19 56.02 32.35 58.19 35.59 C59 37.97 59 37.97 59.19 39.59 C60.18 39.26 61.17 38.93 62.19 38.59 C63.74 38.51 65.3 38.49 66.85 38.5 C67.75 38.5 68.64 38.5 69.56 38.5 C70.95 38.52 70.95 38.52 72.37 38.53 C73.31 38.53 74.25 38.54 75.22 38.54 C77.54 38.56 79.87 38.57 82.19 38.59 C82.85 37.27 83.51 35.95 84.19 34.59 C87.56 34.47 87.56 34.47 91.19 34.59 C93.19 36.59 93.19 36.59 93.44 40.09 C93.19 43.59 93.19 43.59 91.19 45.59 C87.75 45.97 87.75 45.97 84.19 45.59 C83.82 44.93 83.45 44.27 83.07 43.58 C81.4 41.42 81.4 41.42 79.17 41.26 C76.6 41.2 74.07 41.25 71.5 41.34 C70.61 41.36 69.71 41.38 68.79 41.4 C66.59 41.44 64.39 41.52 62.19 41.59 C67.47 41.92 72.75 42.25 78.19 42.59 C79.41 48.77 80.24 54.29 80.19 60.59 C78.28 60.59 78.28 60.59 76.34 60.59 C64.35 60.59 52.36 60.61 40.36 60.67 C34.2 60.7 28.04 60.72 21.87 60.71 C15.92 60.71 9.97 60.73 4.02 60.77 C1.75 60.78 -0.51 60.78 -2.78 60.77 C-5.96 60.76 -9.14 60.79 -12.33 60.82 C-13.26 60.81 -14.19 60.8 -15.15 60.78 C-22.02 60.91 -26.67 62.99 -31.8 67.59 C-33.52 69.88 -34.59 71.97 -35.8 74.59 C-36.13 75.25 -36.46 75.91 -36.8 76.59 C-37.48 84.28 -37.22 91.17 -32.39 97.43 C-27.57 102.29 -21.9 104.38 -15.53 106.46 C-9.9 108.34 -6.39 110.8 -2.49 115.22 C-0.21 119.78 0.14 123.59 -0.8 128.59 C-2.81 132.46 -5.74 135.04 -9.8 136.59 C-12.94 136.87 -12.94 136.87 -16.68 136.91 C-17.71 136.93 -17.71 136.93 -18.75 136.94 C-21.01 136.97 -23.26 136.99 -25.51 137.01 C-27.07 137.03 -28.63 137.05 -30.2 137.07 C-34.31 137.12 -38.42 137.16 -42.53 137.19 C-46.72 137.23 -50.92 137.28 -55.12 137.33 C-63.35 137.43 -71.57 137.52 -79.8 137.59 C-80.13 141.22 -80.46 144.85 -80.8 148.59 C-71.34 148.55 -61.89 148.49 -52.43 148.41 C-48.04 148.37 -43.64 148.34 -39.25 148.32 C-35 148.31 -30.76 148.27 -26.51 148.22 C-24.9 148.21 -23.28 148.2 -21.67 148.2 C-11.19 148.19 -1.95 147.52 7.12 141.72 C12.32 136.37 15.17 130.73 15.56 123.28 C15.37 115.57 11.65 108.93 6.19 103.59 C3.07 101.58 3.07 101.58 -0.37 100.03 C-0.97 99.74 -1.58 99.45 -2.21 99.14 C-7.13 96.81 -12.16 94.79 -17.28 92.93 C-20.93 91 -22.97 88.25 -24.8 84.59 C-25.06 80.7 -25.13 77.81 -22.8 74.59 C-18.64 71.46 -15.51 71.23 -10.37 71.26 C-9.66 71.27 -8.94 71.27 -8.21 71.27 C-6.69 71.28 -5.18 71.29 -3.67 71.31 C-1.4 71.34 0.85 71.35 3.11 71.36 C12.18 71.41 21.15 71.82 30.19 72.59 C31.15 98.27 31.31 123.9 31.19 149.59 C30.53 149.59 29.87 149.59 29.19 149.59 C28.86 124.84 28.53 100.09 28.19 74.59 C20.86 74.53 13.54 74.47 6 74.41 C3.7 74.38 1.39 74.35 -0.97 74.32 C-2.81 74.31 -4.64 74.31 -6.47 74.3 C-7.42 74.28 -8.36 74.27 -9.34 74.25 C-16.1 74.2 -16.1 74.2 -21.8 77.59 C-22.3 81.05 -22.3 81.05 -21.8 84.59 C-21.74 85.36 -21.68 86.12 -21.62 86.91 C-20.37 89.49 -18.46 89.62 -15.8 90.59 C10.14 100.44 10.14 100.44 16.31 112.85 C18.39 119.35 18.56 128.05 16.09 134.43 C14.62 136.73 13.08 138.63 11.19 140.59 C10.66 141.16 10.13 141.73 9.58 142.32 C1.62 149.98 -7.52 151.07 -18.11 150.86 C-18.88 150.84 -19.66 150.82 -20.45 150.8 C-22.93 150.74 -25.41 150.72 -27.89 150.7 C-34.94 150.65 -41.99 150.58 -49.04 150.4 C-74.99 149.79 -95.27 153.39 -118.8 164.59 C-116.1 166.02 -113.46 167.1 -110.54 168.01 C-109.7 168.27 -108.86 168.53 -108 168.8 C-106.65 169.22 -106.65 169.22 -105.27 169.64 C-103.85 170.08 -103.85 170.08 -102.41 170.53 C-99.37 171.47 -96.34 172.41 -93.3 173.34 C-91.32 173.96 -89.34 174.57 -87.36 175.19 C-77.27 178.31 -67.17 181.39 -57.05 184.41 C-51.42 186.09 -45.82 187.84 -40.22 189.62 C-37.91 190.35 -35.61 191.07 -33.3 191.8 C-31.74 192.29 -30.17 192.79 -28.61 193.3 C-26.3 194.04 -23.98 194.77 -21.66 195.5 C-20.97 195.72 -20.28 195.95 -19.57 196.18 C-10.95 198.83 -3.5 195.72 4.75 193.1 C7.08 192.37 9.42 191.64 11.76 190.91 C12.98 190.53 14.2 190.15 15.45 189.76 C21.64 187.83 27.84 185.94 34.03 184.05 C36.56 183.28 39.09 182.51 41.61 181.74 C43.5 181.16 43.5 181.16 45.42 180.57 C47.99 179.79 50.56 179.01 53.12 178.22 C67.13 173.94 81.13 169.67 95.19 165.59 C94.6 165.42 94.02 165.25 93.41 165.08 C90.57 164.25 87.72 163.42 84.87 162.59 C83.96 162.33 83.04 162.06 82.09 161.78 C69.44 158.1 56.82 154.34 44.19 150.59 C44.19 124.52 44.19 98.45 44.19 71.59 C52.11 71.59 60.03 71.59 68.19 71.59 C68.19 72.25 68.19 72.91 68.19 73.59 C60.93 73.59 53.67 73.59 46.19 73.59 C46.19 79.53 46.19 85.47 46.19 91.59 C49.31 91.48 52.44 91.35 55.56 91.22 C56.45 91.19 57.34 91.16 58.26 91.12 C59.11 91.09 59.96 91.05 60.83 91.01 C61.62 90.98 62.41 90.94 63.22 90.91 C65.42 90.75 65.42 90.75 67.19 88.59 C69.69 88.34 69.69 88.34 72.19 88.59 C72.85 89.25 73.51 89.91 74.19 90.59 C73.81 93.72 73.81 93.72 73.19 96.59 C70.22 97.09 70.22 97.09 67.19 97.59 C66.53 96.27 65.87 94.95 65.19 93.59 C58.92 93.59 52.65 93.59 46.19 93.59 C46.19 101.84 46.19 110.09 46.19 118.59 C50.25 118.49 54.31 118.39 58.5 118.28 C60.42 118.24 60.42 118.24 62.37 118.2 C63.38 118.17 64.39 118.14 65.42 118.1 C66.97 118.07 66.97 118.07 68.55 118.03 C71.56 117.53 72.22 116.8 74.19 114.59 C77.25 114.22 77.25 114.22 80.19 114.59 C82.75 118.44 82.02 120.18 81.19 124.59 C78.88 124.92 76.57 125.25 74.19 125.59 C73.81 124.95 73.43 124.3 73.05 123.63 C71.33 121.35 71.33 121.35 68.55 121.05 C67.52 121.03 66.49 121.01 65.42 120.98 C64.31 120.95 63.19 120.92 62.04 120.89 C60.87 120.87 59.7 120.86 58.5 120.84 C57.32 120.81 56.14 120.78 54.93 120.75 C52.01 120.68 49.1 120.64 46.19 120.59 C46.19 125.54 46.19 130.49 46.19 135.59 C48.98 135.48 51.77 135.35 54.56 135.22 C55.75 135.17 55.75 135.17 56.97 135.12 C61.55 135.07 61.55 135.07 65.19 132.59 C67.81 132.97 67.81 132.97 70.19 133.59 C70.81 135.97 70.81 135.97 71.19 138.59 C69.19 140.59 69.19 140.59 66.56 140.72 C65.78 140.68 64.99 140.64 64.19 140.59 C63.86 139.6 63.53 138.61 63.19 137.59 C57.58 137.59 51.97 137.59 46.19 137.59 C46.19 141.22 46.19 144.85 46.19 148.59 C47.65 148.98 49.11 149.38 50.62 149.78 C57.79 151.74 64.92 153.83 72.05 155.93 C74.31 156.59 76.58 157.26 78.85 157.92 C86 160.02 93.13 162.16 100.19 164.59 C100.19 169.87 100.19 175.15 100.19 180.59 C98.87 180.92 97.55 181.25 96.19 181.59 C97.62 181.67 99.06 181.73 100.5 181.78 C101.3 181.81 102.1 181.85 102.92 181.89 C105.7 181.53 106.33 180.59 108.19 178.59 C112.61 179.01 112.61 179.01 114.19 180.59 C114.37 183.03 114.37 183.03 114.19 185.59 C112.19 187.59 112.19 187.59 109.69 187.84 C107.19 187.59 107.19 187.59 105.19 185.59 C102.47 185.31 102.47 185.31 99.3 185.4 C97.55 185.41 97.55 185.41 95.77 185.42 C94.55 185.43 93.32 185.45 92.06 185.47 C90.83 185.48 89.6 185.49 88.33 185.5 C85.28 185.52 82.23 185.55 79.19 185.59 C79.19 186.25 79.19 186.91 79.19 187.59 C85.13 187.59 91.07 187.59 97.19 187.59 C97.19 188.25 97.19 188.91 97.19 189.59 C94.52 189.62 91.85 189.64 89.19 189.66 C88.44 189.66 87.7 189.67 86.93 189.68 C83.19 189.7 79.62 189.56 75.92 189 C72.38 188.61 70.71 188.7 67.5 190.03 C64.24 191.27 61.72 191.93 58.19 191.59 C58.19 192.25 58.19 192.91 58.19 193.59 C68.09 193.26 77.99 192.93 88.19 192.59 C88.19 193.25 88.19 193.91 88.19 194.59 C81.08 195.37 74.02 195.7 66.87 195.72 C65.75 195.72 65.75 195.72 64.6 195.73 C61.09 195.72 57.84 195.54 54.36 195.03 C50.71 194.53 48.55 195.2 45.19 196.59 C48.51 199.6 50.83 200 55.26 200.1 C56.42 200.14 57.58 200.18 58.78 200.21 C60.59 200.25 60.59 200.25 62.44 200.28 C63.66 200.31 64.88 200.35 66.14 200.38 C69.16 200.47 72.17 200.54 75.19 200.59 C75.19 200.92 75.19 201.25 75.19 201.59 C70.79 201.68 66.4 201.73 62 201.78 C60.75 201.81 59.51 201.83 58.22 201.86 C57.02 201.87 55.82 201.88 54.58 201.89 C52.92 201.91 52.92 201.91 51.23 201.93 C47.81 201.55 46.03 200.46 43.19 198.59 C38.95 198.15 36.02 198.79 32.19 200.59 C34.45 203.4 35.59 204.5 39.21 205.05 C40.36 205.03 41.52 205 42.7 204.98 C43.95 204.97 45.2 204.96 46.49 204.94 C47.79 204.91 49.1 204.88 50.44 204.84 C51.75 204.82 53.07 204.81 54.43 204.79 C57.68 204.74 60.93 204.68 64.19 204.59 C64.19 205.25 64.19 205.91 64.19 206.59 C59.89 206.93 55.59 207.22 51.29 207.47 C49.3 207.59 47.31 207.73 45.32 207.87 C36.25 208.27 36.25 208.27 32.97 206.18 C31.19 204.47 31.19 204.47 29.81 202.71 C29.28 202.34 28.74 201.97 28.19 201.59 C25.01 202.33 25.01 202.33 22.19 203.59 C22.84 204.22 23.49 204.85 24.16 205.49 C24.99 206.31 25.83 207.13 26.69 207.97 C27.52 208.78 28.36 209.59 29.22 210.43 C31.19 212.59 31.19 212.59 31.19 214.59 C27.71 213.13 25.83 211.23 23.37 208.41 C21.38 206.22 21.38 206.22 19.19 204.59 C15.29 204.38 15.29 204.38 12.19 205.59 C12.19 206.25 12.19 206.91 12.19 207.59 C13.01 208.25 13.84 208.91 14.69 209.59 C15.51 210.25 16.34 210.91 17.19 211.59 C17.19 212.25 17.19 212.91 17.19 213.59 C14.58 212.48 13.28 211.72 11.56 209.41 C8.6 207.15 7.55 207.47 3.94 207.84 C2.35 208.07 0.77 208.32 -0.8 208.59 C0.16 209.42 1.13 210.24 2.12 211.09 C6.51 216.05 5.98 221.96 6.08 228.24 C5.8 231.43 5.8 231.43 7.19 232.59 C7.23 234.26 7.23 235.93 7.19 237.59 C4.81 238.22 4.81 238.22 2.19 238.59 C1.53 237.93 0.87 237.27 0.19 236.59 C0.72 233.06 0.72 233.06 2.19 231.59 C2.37 229.16 2.46 226.78 2.5 224.34 C2.53 223.67 2.56 223.01 2.59 222.32 C2.63 218.78 2.25 216.7 0.46 213.63 C-1.6 211.43 -1.6 211.43 -4.16 211.1 C-5.35 211.19 -5.35 211.19 -6.55 211.28 C-7.35 211.33 -8.15 211.37 -8.98 211.42 C-9.58 211.47 -10.18 211.53 -10.8 211.59 C-10.66 213.99 -10.52 216.38 -10.37 218.78 C-10.33 219.45 -10.29 220.13 -10.25 220.82 C-10.06 223.78 -9.8 226.62 -9.21 229.52 C-9.07 230.2 -8.94 230.89 -8.8 231.59 C-9.8 232.59 -9.8 232.59 -12.37 232.66 C-13.17 232.63 -13.97 232.61 -14.8 232.59 C-15.3 230.12 -15.3 230.12 -15.8 227.59 C-14.81 227.26 -13.82 226.93 -12.8 226.59 C-12.8 221.64 -12.8 216.69 -12.8 211.59 C-17.79 210.33 -17.79 210.33 -22.67 211.33 C-24.8 212.97 -25.7 214.12 -26.8 216.59 C-27.3 221.65 -27.15 226.53 -26.8 231.59 C-26.14 231.92 -25.48 232.25 -24.8 232.59 C-24.8 234.24 -24.8 235.89 -24.8 237.59 C-29.55 238.72 -29.55 238.72 -31.8 237.59 C-30.93 232.72 -30.93 232.72 -29.8 231.59 C-29.75 229.79 -29.69 227.98 -29.66 226.17 C-29.42 215.26 -29.42 215.26 -25.74 211.09 C-24.77 210.27 -23.8 209.44 -22.8 208.59 C-26.18 207.86 -29.35 207.36 -32.8 207.59 C-35.4 209.3 -36.81 211.15 -38.8 213.59 C-39.46 213.59 -40.12 213.59 -40.8 213.59 C-39.51 210.71 -38.14 208.72 -35.8 206.59 C-38.1 205.15 -39.41 204.57 -42.15 204.75 C-45.58 205.84 -47.16 207.55 -49.62 210.16 C-50.8 211.39 -50.8 211.39 -52.01 212.66 C-52.6 213.3 -53.19 213.94 -53.8 214.59 C-53.8 211.59 -53.8 211.59 -52.05 209.55 C-51.31 208.84 -50.57 208.13 -49.8 207.41 C-49.06 206.69 -48.32 205.97 -47.55 205.24 C-46.98 204.69 -46.4 204.15 -45.8 203.59 C-48.61 202.01 -48.61 202.01 -51.74 201.66 C-54.07 202.54 -54.07 202.54 -56.01 205.13 C-59.52 208.22 -61.03 208.13 -65.64 207.86 C-66.93 207.8 -68.22 207.74 -69.55 207.68 C-70.91 207.59 -72.26 207.5 -73.62 207.41 C-74.99 207.33 -76.36 207.26 -77.74 207.19 C-81.1 207.02 -84.45 206.81 -87.8 206.59 C-87.8 205.93 -87.8 205.27 -87.8 204.59 C-86.98 204.61 -86.15 204.63 -85.3 204.66 C-81.55 204.74 -77.8 204.79 -74.05 204.84 C-72.1 204.89 -72.1 204.89 -70.11 204.94 C-68.23 204.96 -68.23 204.96 -66.32 204.98 C-65.17 205.00 -64.02 205.03 -62.83 205.05 C-59.2 204.5 -58.07 203.4 -55.8 200.59 C-60.18 198.31 -60.18 198.31 -64.93 197.72 C-66.93 198.58 -66.93 198.58 -69.01 200.13 C-72.39 201.9 -74.61 201.94 -78.42 201.89 C-79.66 201.88 -80.91 201.87 -82.2 201.86 C-83.49 201.83 -84.78 201.81 -86.12 201.78 C-87.43 201.77 -88.74 201.75 -90.09 201.74 C-93.33 201.7 -96.57 201.65 -99.8 201.59 C-99.8 201.26 -99.8 200.93 -99.8 200.59 C-98.66 200.57 -98.66 200.57 -97.5 200.55 C-94.04 200.47 -90.58 200.38 -87.12 200.28 C-85.92 200.26 -84.72 200.24 -83.49 200.21 C-82.33 200.18 -81.17 200.14 -79.98 200.1 C-78.92 200.08 -77.85 200.05 -76.76 200.03 C-73.47 199.54 -71.51 198.47 -68.8 196.59 C-73.28 194.24 -73.28 194.24 -78.12 193.84 C-79.36 194.4 -80.59 194.98 -81.8 195.59 C-83.55 195.69 -85.29 195.72 -87.04 195.73 C-88.61 195.73 -88.61 195.73 -90.22 195.73 C-91.32 195.73 -92.42 195.72 -93.55 195.72 C-94.64 195.72 -95.72 195.73 -96.84 195.73 C-98.42 195.73 -98.42 195.73 -100.04 195.73 C-101 195.72 -101.96 195.72 -102.95 195.72 C-105.97 195.59 -108.84 195.15 -111.8 194.59 C-111.8 193.93 -111.8 193.27 -111.8 192.59 C-110.55 192.65 -110.55 192.65 -109.27 192.7 C-106.16 192.83 -103.06 192.95 -99.95 193.07" fill="#C8A26A" transform="translate(182.8,424.4)"/>
</svg>
